<svg id="Componente_10_1" data-name="Componente 10 – 1" xmlns="http://www.w3.org/2000/svg" width="20" height="24" viewBox="0 0 20 24">
  <path id="fi-rr-duplicate" d="M21.155,3.272,18.871.913A3.02,3.02,0,0,0,16.715,0H12A5.009,5.009,0,0,0,7.1,4H7A5.006,5.006,0,0,0,2,9V19a5.006,5.006,0,0,0,5,5h6a5.006,5.006,0,0,0,5-5v-.1A5.009,5.009,0,0,0,22,14V5.36A2.988,2.988,0,0,0,21.155,3.272ZM13,22H7a3,3,0,0,1-3-3V9A3,3,0,0,1,7,6v8a5.006,5.006,0,0,0,5,5h4A3,3,0,0,1,13,22Zm4-5H12a3,3,0,0,1-3-3V5a3,3,0,0,1,3-3h4V4a2,2,0,0,0,2,2h2v8A3,3,0,0,1,17,17Z" transform="translate(-2 0)" fill="#00467a" opacity="0"/>
  <g id="fi-sr-duplicate" transform="translate(-2 0)">
    <path id="Caminho_50" data-name="Caminho 50" d="M12,21a7.008,7.008,0,0,1-7-7V5c0-.2.013-.4.03-.592A5.006,5.006,0,0,0,2,9V19a5.006,5.006,0,0,0,5,5h6a5.006,5.006,0,0,0,4.592-3.03c-.2.017-.392.03-.592.03Z" fill="#00467a"/>
    <path id="Caminho_51" data-name="Caminho 51" d="M21.155,3.272,18.871.913A3,3,0,0,0,18,.3V4h3.66a2.987,2.987,0,0,0-.5-.728Z" fill="#00467a"/>
    <path id="Caminho_52" data-name="Caminho 52" d="M17,4a1,1,0,0,0,1,1h3.966a2.981,2.981,0,0,0-.811-1.728L18.871.913A3.011,3.011,0,0,0,17,.029Z" fill="#00467a"/>
    <path id="Caminho_53" data-name="Caminho 53" d="M15,4V0H12A5.006,5.006,0,0,0,7,5v9a5.006,5.006,0,0,0,5,5h5a5.006,5.006,0,0,0,5-5V7H18a3,3,0,0,1-3-3Z" fill="#00467a"/>
  </g>
</svg>
