<svg id="fi-sr-compress-alt" xmlns="http://www.w3.org/2000/svg" width="15.726" height="15.726" viewBox="0 0 15.726 15.726">
  <path id="Caminho_65" data-name="Caminho 65" d="M4.779,1.37,3.538,2.611,1.118.192a.655.655,0,1,0-.927.927l2.419,2.42L1.37,4.779A.655.655,0,0,0,1.835,5.9H4.956A.941.941,0,0,0,5.9,4.956V1.835A.655.655,0,0,0,4.779,1.37Z" transform="translate(5.897 5.897) rotate(180)" fill="#000034"/>
  <path id="Caminho_66" data-name="Caminho 66" d="M3.286,2.359,4.527,1.118A.655.655,0,0,0,4.062,0H.941A.941.941,0,0,0,0,.941V4.062a.655.655,0,0,0,1.118.464l1.24-1.24L4.778,5.705A.655.655,0,1,0,5.7,4.779Z" transform="translate(15.725 15.726) rotate(180)" fill="#000034"/>
  <path id="Caminho_67" data-name="Caminho 67" d="M.941,5.9H4.062a.655.655,0,0,0,.464-1.118l-1.24-1.24L5.705,1.119A.655.655,0,1,0,4.779.192L2.359,2.611,1.118,1.37A.655.655,0,0,0,0,1.834V4.956A.941.941,0,0,0,.941,5.9Z" transform="translate(15.726 5.897) rotate(180)" fill="#000034"/>
  <path id="Caminho_68" data-name="Caminho 68" d="M4.956,0H1.835a.655.655,0,0,0-.464,1.118l1.24,1.24L.192,4.779a.655.655,0,1,0,.927.927l2.42-2.419L4.779,4.527A.655.655,0,0,0,5.9,4.062V.941A.941.941,0,0,0,4.956,0Z" transform="translate(5.897 15.726) rotate(180)" fill="#000034"/>
</svg>
