<svg xmlns="http://www.w3.org/2000/svg" width="179.443" height="51.243" viewBox="0 0 179.443 51.243">
  <g id="Grupo_3" data-name="Grupo 3" transform="translate(-5.669 -725.119)">
    <path id="path28" d="M334.534,835.268h2.432l-2.432-7.345-.158-.5-2.276,7.841Zm0-12.662h3.154l7.637,20.794h-5.97l-1.127-3.829h-7.434l-1.037,3.829h-5.879l7.209-20.794Zm-19.5,15.747c1.959-.474,3.245-2.027,3.154-5.474-.09-3.244-1.262-4.752-3.154-5.25a6.711,6.711,0,0,0-1.375-.2H311.88v11.06h1.712a7.39,7.39,0,0,0,1.442-.135Zm0-15.679a9.517,9.517,0,0,1,4.6,1.6,10.891,10.891,0,0,1,4.415,8.74c-.112,4.755-2.477,7.75-5.069,9.192a11.75,11.75,0,0,1-3.942,1.081,21.315,21.315,0,0,1-2.479.113h-6.2V822.584h7.255c.473.023.946.044,1.42.09Zm-19.964-.067c2.162.067,3.9.315,5.339,1.375a6.233,6.233,0,0,1,2.457,5.181,5.613,5.613,0,0,1-4.777,5.948l6.015,8.29h-6.737l-2.3-3.58-2.523-3.966V843.4H287.1V822.584h6.443c.517,0,1.035.023,1.532.023Zm0,9.755a2.44,2.44,0,0,0,2.546-2.658c.044-1.532-.675-2.547-2.546-2.727a8.961,8.961,0,0,0-1.351,0h-1.172v5.34l1.734.046a4.676,4.676,0,0,0,.789,0Zm51.093-9.778.024,13.026c0,5.037,3.067,7.9,8.73,7.789,5.484-.113,8.214-2.529,8.685-7.744V822.584h-5.507v12.444a2.963,2.963,0,0,1-3.178,3.492c-2.081.045-3.469-1.053-3.29-3.492V822.584ZM270.028,843.4h14.08v-4.454H275.6v-4.007h7.162V830.62h-7.139V827.1h8.483v-4.52h-14.08Zm-8.282-.019,4.745,0V831.471H256.24v4.1l5.3.023c-1.029,1.859-2.4,3.6-4.834,3.581-2.687.135-5.327-2.125-5.4-5.864-.112-4.051,2.708-6.2,5.216-6.11a4.28,4.28,0,0,1,3.962,2.6l4.856-2.305a9.763,9.763,0,0,0-8.639-5.036c-6.067-.045-10.857,3.738-11.059,10.631a10.415,10.415,0,0,0,9.716,10.565,7.41,7.41,0,0,0,6.379-2.551Z" transform="translate(-178.489 -72.386)" fill="#fff" fill-rule="evenodd"/>
    <path id="path30" d="M5.669,725.119H56.913v51.243H5.669Z" fill="#fff"/>
    <path id="path32" d="M45.648,843.059H42.054v-1.7a8.284,8.284,0,0,1-5.809,2.223c-6.939,0-10.419-5.687-10.419-10.589s3.444-10.6,10.314-10.6,9.47,6.142,9.47,6.142l-3.11,1.863s-2.143-4.06-6.291-4.06a6.642,6.642,0,0,0,.072,13.283,6.29,6.29,0,0,0,5.286-2.847H36.242v-3.794h9.406Z" transform="translate(-14.992 -72.343)" fill="#0f2d56"/>
    <path id="path34" d="M108.41,832.955h9.411v3.8h-5.328a6.3,6.3,0,0,0,5.289,2.849,6.646,6.646,0,0,0,.071-13.291c-4.148,0-6.294,4.063-6.294,4.063l-3.112-1.864s2.6-6.146,9.476-6.146,10.32,5.706,10.32,10.61-3.481,10.595-10.425,10.595a8.293,8.293,0,0,1-5.813-2.225v1.706h-3.6Z" transform="translate(-76.415 -72.325)" fill="#0f2d56"/>
  </g>
</svg>
