<svg xmlns="http://www.w3.org/2000/svg" width="31.719" height="31.719" viewBox="0 0 31.719 31.719">
  <path id="fi-br-pulse" d="M24.45,0H7.269A7.277,7.277,0,0,0,0,7.269V17.842a7.277,7.277,0,0,0,7.269,7.269h6.608v2.643H9.912a1.982,1.982,0,0,0,0,3.965H21.807a1.982,1.982,0,0,0,0-3.965H17.842V25.111H24.45a7.277,7.277,0,0,0,7.269-7.269V7.269A7.277,7.277,0,0,0,24.45,0Zm3.3,17.842a3.3,3.3,0,0,1-3.3,3.3H7.269a3.3,3.3,0,0,1-3.3-3.3V7.269a3.3,3.3,0,0,1,3.3-3.3H24.45a3.3,3.3,0,0,1,3.3,3.3Zm-2.643-5.286a1.982,1.982,0,0,1-1.982,1.982H21.542L19.487,17.62a1.982,1.982,0,0,1-1.645.883h-.123a1.982,1.982,0,0,1-1.651-1.092l-2.437-4.878-.748,1.122a1.982,1.982,0,0,1-1.649.883H8.591a1.982,1.982,0,0,1,0-3.965h1.586l2.051-3.082a1.982,1.982,0,0,1,3.423.213l2.437,4.874.748-1.122a1.982,1.982,0,0,1,1.649-.883h2.643A1.982,1.982,0,0,1,25.111,12.555Z" fill="#fff"/>
</svg>
