<svg id="fi-sr-compress-alt" xmlns="http://www.w3.org/2000/svg" width="15.726" height="15.726" viewBox="0 0 15.726 15.726">
  <path id="Caminho_65" data-name="Caminho 65" d="M4.779,1.37,3.538,2.611,1.118.192a.655.655,0,1,0-.927.927l2.419,2.42L1.37,4.779A.655.655,0,0,0,1.835,5.9H4.956A.941.941,0,0,0,5.9,4.956V1.835A.655.655,0,0,0,4.779,1.37Z" fill="#000034"/>
  <path id="Caminho_66" data-name="Caminho 66" d="M18.286,17.359l1.241-1.241A.655.655,0,0,0,19.062,15H15.941a.941.941,0,0,0-.941.941v3.122a.655.655,0,0,0,1.118.464l1.24-1.24,2.419,2.419a.655.655,0,1,0,.927-.927Z" transform="translate(-5.171 -5.171)" fill="#000034"/>
  <path id="Caminho_67" data-name="Caminho 67" d="M15.941,5.9h3.122a.655.655,0,0,0,.464-1.118l-1.24-1.24,2.419-2.419a.655.655,0,1,0-.927-.927l-2.42,2.419L16.118,1.37A.655.655,0,0,0,15,1.835V4.956A.941.941,0,0,0,15.941,5.9Z" transform="translate(-5.171 0)" fill="#000034"/>
  <path id="Caminho_68" data-name="Caminho 68" d="M4.956,15H1.835a.655.655,0,0,0-.464,1.118l1.24,1.24L.192,19.779a.655.655,0,1,0,.927.927l2.42-2.419,1.241,1.241A.655.655,0,0,0,5.9,19.062V15.941A.941.941,0,0,0,4.956,15Z" transform="translate(0 -5.171)" fill="#000034"/>
</svg>
