<svg xmlns="http://www.w3.org/2000/svg" width="20" height="24.001" viewBox="0 0 20 24.001">
  <g id="fi-br-unlock" transform="translate(-2 0.001)">
    <path id="Caminho_4" data-name="Caminho 4" d="M16.5,8H8V7.227A4.228,4.228,0,0,1,15.927,5.18,1.5,1.5,0,1,0,18.55,3.724,7.228,7.228,0,0,0,5,7.227v1.38A5.5,5.5,0,0,0,2,13.5v5A5.506,5.506,0,0,0,7.5,24h9A5.506,5.506,0,0,0,22,18.5v-5A5.506,5.506,0,0,0,16.5,8ZM19,18.5A2.5,2.5,0,0,1,16.5,21h-9A2.5,2.5,0,0,1,5,18.5v-5A2.5,2.5,0,0,1,7.5,11h9A2.5,2.5,0,0,1,19,13.5Z" fill="#8995a1"/>
    <rect id="Retângulo_6" data-name="Retângulo 6" width="4" height="3" rx="1.5" transform="translate(10 14)" fill="#8995a1"/>
  </g>
</svg>
