<svg xmlns="http://www.w3.org/2000/svg" width="16.001" height="24" viewBox="0 0 16.001 24">
  <g id="fi-br-user" transform="translate(-3.999)">
    <path id="Caminho_2" data-name="Caminho 2" d="M11.452,14.018A8.19,8.19,0,0,0,4,22.283V22.5A1.5,1.5,0,0,0,5.5,24h0A1.5,1.5,0,0,0,7,22.5v-.277a5.153,5.153,0,0,1,4.5-5.2A5.006,5.006,0,0,1,17,22v.5A1.5,1.5,0,0,0,18.5,24h0A1.5,1.5,0,0,0,20,22.5V22a8.009,8.009,0,0,0-8.548-7.982Z" fill="#8995a1"/>
    <path id="Caminho_3" data-name="Caminho 3" d="M12,12A6,6,0,1,0,6,6a6,6,0,0,0,6,6Zm0-9A3,3,0,1,1,9,6a3,3,0,0,1,3-3Z" fill="#8995a1"/>
  </g>
</svg>
