<svg xmlns="http://www.w3.org/2000/svg" width="14.158" height="14" viewBox="0 0 14.158 14">
  <g id="fi-br-angle-double-small-left" transform="translate(17.971 18.5) rotate(180)">
    <path id="Caminho_31" data-name="Caminho 31" d="M10.037,18.5a1.4,1.4,0,0,1-.989-.41l-4.28-4.28a3.271,3.271,0,0,1,0-4.62l4.28-4.28a1.4,1.4,0,1,1,1.98,1.981L6.747,11.17a.467.467,0,0,0,0,.661l4.28,4.279a1.4,1.4,0,0,1-.99,2.39Z" transform="translate(0)" fill="#b7b7b8"/>
    <path id="Caminho_32" data-name="Caminho 32" d="M16.982,18.5a1.4,1.4,0,0,1-.989-.41l-5.6-5.6a1.4,1.4,0,0,1,0-1.981l5.6-5.6a1.4,1.4,0,0,1,1.98,1.981L13.359,11.5l4.61,4.61a1.4,1.4,0,0,1-.987,2.39Z" transform="translate(-0.411 0)" fill="#b7b7b8"/>
  </g>
</svg>
